<?xml version="1.0" standalone="no"?>
<!DOCTYPE svg PUBLIC "-//W3C//DTD SVG 20010904//EN"
 "http://www.w3.org/TR/2001/REC-SVG-20010904/DTD/svg10.dtd">
<svg version="1.0" xmlns="http://www.w3.org/2000/svg"
 width="192.000000pt" height="165.000000pt" viewBox="0 0 192.000000 165.000000"
 preserveAspectRatio="xMidYMid meet">
<metadata>
Created by potrace 1.16, written by Peter Selinger 2001-2019
</metadata>
<g transform="translate(0.000000,165.000000) scale(0.100000,-0.100000)"
fill="#000000" stroke="none">
<path d="M1320 1525 c14 -17 0 -21 -16 -5 -10 10 -10 -89 -1 -364 l3 -88 -35
6 c-20 3 -59 6 -87 6 -63 0 -61 -3 -74 182 -4 71 -13 135 -20 142 -6 8 -10 18
-9 22 5 20 -15 65 -31 74 -31 16 -44 13 -29 -7 11 -14 8 -13 -9 2 -20 16 -25
17 -32 5 -6 -9 -5 -17 3 -22 7 -4 8 -8 2 -8 -6 0 -16 5 -23 12 -18 18 -15 -12
3 -36 11 -15 13 -51 8 -190 -3 -94 -10 -176 -15 -183 -20 -25 58 -109 92 -98
9 3 29 1 42 -4 18 -7 31 -6 45 4 12 9 64 15 146 19 130 5 207 20 207 40 0 7
-13 19 -29 29 -34 20 -38 39 -46 192 -9 176 -22 234 -62 265 -30 23 -51 27
-33 5z"/>
<path d="M700 1465 c-19 -7 -98 -21 -176 -30 -108 -14 -148 -16 -172 -7 -29
10 -32 9 -32 -8 0 -10 6 -21 13 -23 6 -3 -1 -6 -18 -6 l-30 -1 37 -33 c20 -18
37 -42 38 -52 6 -177 6 -709 0 -735 -5 -19 -12 -94 -15 -166 -7 -126 -6 -133
14 -153 22 -22 85 -29 96 -11 5 8 11 7 21 -1 8 -6 16 -10 18 -8 9 9 35 93 30
100 -6 10 -25 382 -19 387 2 3 32 -24 67 -59 196 -196 280 -269 365 -317 198
-111 264 -138 406 -161 37 -7 79 -16 94 -22 14 -5 49 -12 78 -14 l52 -5 -1 37
c-2 35 -5 39 -69 73 -37 21 -93 43 -125 50 -111 25 -372 157 -449 227 -31 29
-61 49 -66 46 -6 -3 -7 -1 -4 4 4 6 -6 19 -21 29 -87 56 -177 133 -216 184
-46 61 -76 111 -76 130 0 6 32 10 84 10 47 0 96 4 110 10 31 12 84 14 113 5
19 -6 23 -2 29 32 5 21 8 76 9 123 0 47 3 87 7 90 3 3 9 46 12 96 5 74 3 96
-12 123 -27 50 -127 79 -192 56z m-17 -129 c22 -58 10 -292 -16 -308 -7 -4
-46 -8 -88 -8 l-76 0 -7 63 c-3 34 -9 101 -12 149 l-7 86 49 7 c27 4 65 11 84
15 53 12 67 11 73 -4z"/>
<path d="M1094 935 c3 -9 0 -15 -9 -15 -18 0 -19 -12 -3 -28 7 -7 8 -12 2 -12
-5 0 -15 5 -22 12 -6 6 -15 9 -18 5 -4 -4 5 -16 20 -28 14 -11 33 -27 41 -35
8 -9 38 -15 74 -17 32 -1 55 -5 50 -8 -6 -3 -3 -20 5 -40 9 -21 13 -57 11 -90
-2 -30 -4 -65 -4 -78 -1 -23 -2 -23 -100 -19 -76 3 -104 8 -119 21 -10 9 -21
17 -24 17 -12 0 -18 -33 -8 -45 9 -11 7 -12 -9 -8 -29 7 -26 -6 9 -42 l30 -31
116 4 c75 2 120 -1 129 -8 8 -7 15 -7 19 -1 3 5 37 15 74 21 59 11 72 10 93
-3 30 -19 89 -12 89 11 0 9 10 26 22 39 l22 24 -21 5 c-12 4 -23 15 -25 27 -2
16 -11 20 -43 21 -23 1 -45 -5 -51 -12 -5 -8 -30 -16 -55 -19 -59 -7 -71 7
-58 65 5 23 7 61 4 84 -6 49 23 108 52 108 10 0 25 5 33 10 12 7 12 12 2 22
-9 9 -50 13 -142 13 -119 0 -130 2 -152 23 -28 25 -43 29 -34 7z"/>
</g>
</svg>
